<svg xmlns="http://www.w3.org/2000/svg" viewBox="0 0 167.86 209.59"><defs><style>.cls-1{fill:#ff917d;}</style></defs><g id="Layer_2" data-name="Layer 2"><g id="Layer_1-2" data-name="Layer 1"><path class="cls-1" d="M167.05,0c-14.25.69-27.86,6-39.52,14.06A105.52,105.52,0,0,0,97.75,46.42C89.4,60.23,83.68,75.47,79.26,90.94c-2.26,7.9-4.13,15.89-6,23.89-1.92,8.27-3.94,16.56-7.07,24.47-5.27,13.3-14.72,26.41-28.83,31.12-11.61,3.88-26.55.22-32.92-10.9-7.81-13.65,1.66-30.77,12.38-39.76,5.44-4.56,12.15-8,19.26-8.85a29.34,29.34,0,0,1,20.48,5.56c6.29,4.4,11.41,10.45,16,16.53A135.79,135.79,0,0,1,85,152.62a136.33,136.33,0,0,1,14,44.66c.49,3.74.81,7.49,1,11.26,0,1.08,1.74,1.09,1.69,0A137.24,137.24,0,0,0,91.21,162a130.6,130.6,0,0,0-25.39-39.67C60.63,116.89,54.43,112,47.05,110a31.35,31.35,0,0,0-20.36,1.74C13.24,117.4,1.82,130.85.16,145.59A23.91,23.91,0,0,0,6,164.45a29.08,29.08,0,0,0,16.16,8.67c14,2.59,27-4.88,35.55-15.49,10.5-13,14.28-29.55,17.95-45.46,3.79-16.42,8.17-32.79,15-48.25,6.45-14.62,15.07-28.38,26.73-39.4,10.84-10.26,24.17-18.21,38.84-21.4A67.27,67.27,0,0,1,167.05,1.7c1.08-.06,1.09-1.75,0-1.7Z"/><path class="cls-1" d="M89,201l11.84,8.43a.85.85,0,0,0,1-.13,92.81,92.81,0,0,0,11.05-14.09c.59-.92-.88-1.78-1.46-.86a90.14,90.14,0,0,1-10.79,13.75l1-.13-11.83-8.44c-.89-.63-1.74.84-.86,1.47Z"/></g></g></svg>