<svg xmlns="http://www.w3.org/2000/svg" viewBox="0 0 389.3 172.13"><defs><style>.cls-1{fill:#ff917d;}</style></defs><g id="Layer_2" data-name="Layer 2"><g id="Layer_1-2" data-name="Layer 1"><path class="cls-1" d="M.35,2.85C15.56,24.72,32.29,46,53.55,62.33c18.58,14.28,41.06,24.46,64.39,27.55,10.47,1.39,21.44,1.24,31.57-2A44.47,44.47,0,0,0,174,69c5.08-8.39,5.66-18.58-.48-26.58-6.64-8.66-18.13-12.64-28.66-13.51-22.79-1.91-42.91,16-48.62,37.23-6.28,23.35,3.39,48.92,18.18,67,16.69,20.36,41.17,32.25,66.81,36.7s52.18,2.39,77.14-4.29a195.57,195.57,0,0,0,64.48-30.58c19-13.86,35.45-31.35,47.18-51.8a147.16,147.16,0,0,0,7.72-15.5c1-2.29-2.39-4.29-3.39-2a156.88,156.88,0,0,1-39.17,54.24,186.19,186.19,0,0,1-57.8,35.31,190.85,190.85,0,0,1-69.59,13c-25.57-.14-51.93-6.09-72.95-21.23-18.7-13.46-33.09-34.57-35.95-57.71-1.37-11.09-.17-22.35,5.16-32.29a47.05,47.05,0,0,1,22.59-21.19c10.09-4.3,21.46-3.86,31.55.21,8.08,3.26,15.85,9.94,16,19.28.13,9.94-7.74,19-15.67,24.08-8.2,5.27-18,7.32-27.6,7.45-21.28.31-42.93-7.35-61.06-18.1C47.76,55.58,30,36.39,14.7,16.07Q9.06,8.59,3.74.87C2.31-1.19-1.1.77.35,2.85Z"/><path class="cls-1" d="M352.91,73l14-3.44,6.75-1.66a8,8,0,0,1,2.81-.5c.76.11,1,.81,1.31,1.45a123.62,123.62,0,0,1,7.71,26.05c.48,2.48,4.26,1.43,3.78-1a144.05,144.05,0,0,0-3.69-14.76c-.75-2.42-1.56-4.83-2.44-7.2-.75-2-1.38-4.42-2.63-6.21-1.37-2-3.48-2.44-5.75-2.06-2.5.43-5,1.19-7.45,1.79l-15.43,3.8c-2.45.6-1.42,4.38,1,3.78Z"/></g></g></svg>