<svg xmlns="http://www.w3.org/2000/svg" viewBox="0 0 276.93 85.57"><defs><style>.cls-1{fill:#494e4a;}.cls-2{fill:none;stroke:#494e4a;stroke-miterlimit:10;stroke-width:3.37px;}</style></defs><g id="Layer_2" data-name="Layer 2"><g id="Layer_1-2" data-name="Layer 1"><path class="cls-1" d="M126.42,2.92h9.83l-14,79.73h-3.06L105.89,2.92h9.17l4.37,34,2.07,21.84h1.21Z"/><path class="cls-1" d="M150.67,83.74C143.13,83.74,139,80.36,139,71V16.57c0-10.7,5.9-14.74,13-14.74,7.64,0,11.68,3.38,11.68,12.78V69C163.66,79.7,157.77,83.74,150.67,83.74Zm.54-74.49c-3.27,0-4,2.41-4,6.23V67.25c0,7.87,2.19,9.07,4.81,9.07,2.84,0,3.49-2.41,3.49-6.23V18.32C155.47,10.46,153.4,9.25,151.21,9.25Z"/><path class="cls-1" d="M196.76,2.92,185.4,60.59V82.65h-8.19V60.48L166.4,2.92h9.17l4.37,30.25L182,52.51h1.21l3.71-49.59Z"/><path class="cls-1" d="M216.31,82.65l-2.84-22.39h-8.19l-1.42,22.39H194L206,14l-4.69-11h10.81l13.33,79.73ZM205.5,58.08h7.64l-2-15.84L209.1,20.39h-1.2Z"/><path class="cls-1" d="M239,47.92h13.54V50.1h-.11c-2.29,0-2.73.44-2.73,2.62v31h-1.2L245.69,71H244.6c-1.31,8.63-4,12.78-9,12.78-4.69,0-7.42-3.38-7.42-12.78V16.57c0-10.7,5.57-14.74,12.23-14.74,5.68,0,8.41,3.38,8.41,10.15a131.3,131.3,0,0,1-2.18,24.25h-8.3c7.64-16.38,8.41-20.64,8.41-23.7,0-2.4-1.75-3.28-6.34-3.28-3.28,0-4,2.41-4,6.23V67.25c0,7.87,1.53,9.07,3.17,9.07,2.4,0,3.6-3.5,3.6-11.14V50.1H239Z"/><path class="cls-1" d="M265.14,75.55h11.79v7.1h-20V2.92h18.9V10h-10.7V39.4h7.75v2.4h-7.75Z"/><circle class="cls-2" cx="42.79" cy="42.79" r="41.1"/><path class="cls-2" d="M15,73.08a41.11,41.11,0,0,1,55.71-.15"/><path class="cls-2" d="M15,12.48A41,41,0,0,0,43,23.44,41,41,0,0,0,70.72,12.63"/><ellipse class="cls-2" cx="42.79" cy="42.79" rx="23.53" ry="41.1"/><line class="cls-2" x1="42.79" y1="1.52" x2="42.79" y2="83.72"/><line class="cls-2" x1="1.85" y1="42.79" x2="84.05" y2="42.79"/></g></g></svg>