<svg xmlns="http://www.w3.org/2000/svg" viewBox="0 0 171.05 81.92"><defs><style>.cls-1{fill:#494e4a;}</style></defs><g id="Layer_2" data-name="Layer 2"><g id="Layer_1-2" data-name="Layer 1"><path class="cls-1" d="M20.53,1.09h9.83l-14,79.73h-3L0,1.09H9.17l4.37,34L15.62,56.9h1.2Z"/><path class="cls-1" d="M44.78,81.92c-7.53,0-11.68-3.39-11.68-12.78V14.75C33.1,4,39,0,46.09,0c7.65,0,11.69,3.39,11.69,12.78V67.17C57.78,77.88,51.88,81.92,44.78,81.92Zm.55-74.49c-3.28,0-4,2.4-4,6.22V65.42c0,7.87,2.18,9.07,4.8,9.07,2.84,0,3.5-2.4,3.5-6.23V16.49C49.59,8.63,47.51,7.43,45.33,7.43Z"/><path class="cls-1" d="M90.87,1.09,79.52,58.76V80.82h-8.2V58.65L60.51,1.09h9.18l4.36,30.26,2.08,19.33h1.2L81,1.09Z"/><path class="cls-1" d="M110.43,80.82l-2.84-22.39H99.4L98,80.82H88.15l12-68.7-4.7-11h10.82L119.6,80.82ZM99.61,56.25h7.65l-2-15.84-2.07-21.84H102Z"/><path class="cls-1" d="M133.15,46.09h13.54v2.19h-.11c-2.29,0-2.73.43-2.73,2.62v31h-1.2l-2.84-12.78h-1.09c-1.31,8.63-4.05,12.78-9,12.78-4.7,0-7.43-3.39-7.43-12.78V14.75C122.33,4,127.9,0,134.57,0,140.24,0,143,3.39,143,10.16a130.69,130.69,0,0,1-2.19,24.25h-8.3C140.14,18,140.9,13.76,140.9,10.7c0-2.4-1.75-3.27-6.33-3.27-3.28,0-4,2.4-4,6.22V65.42c0,7.87,1.53,9.07,3.17,9.07,2.4,0,3.61-3.5,3.61-11.14V48.28h-4.15Z"/><path class="cls-1" d="M159.25,73.73h11.8v7.09h-20V1.09H170v7.1h-10.7V37.57H167V40h-7.76Z"/></g></g></svg>